<svg xmlns="http://www.w3.org/2000/svg" width="112" height="102" viewBox="0 0 112 102"><g><g><g><g><text dominant-baseline="text-before-edge" style="line-height:22px" fill="#333" font-family="'OpenSans','OpenSans'" font-size="18" font-style="none" font-weight="400" transform="translate(0 65)"><tspan style="font-kerning:normal">Free shipping </tspan><tspan style="font-kerning:normal">381 stores</tspan></text></g></g><g><path d="M53.393 45.248c0 2.62-2.13 4.752-4.75 4.752a4.756 4.756 0 0 1-4.748-4.752c0-2.62 2.13-4.752 4.749-4.752a4.756 4.756 0 0 1 4.75 4.752zm-2.652 0a2.1 2.1 0 0 0-2.097-2.099 2.1 2.1 0 0 0-2.098 2.1 2.1 2.1 0 0 0 2.098 2.098 2.1 2.1 0 0 0 2.097-2.099zm19.311 0c0 2.62-2.13 4.752-4.75 4.752a4.756 4.756 0 0 1-4.749-4.752c0-2.62 2.13-4.752 4.75-4.752a4.756 4.756 0 0 1 4.749 4.752zm-2.652 0a2.1 2.1 0 0 0-2.097-2.099 2.1 2.1 0 0 0-2.098 2.1 2.1 2.1 0 0 0 2.098 2.098 2.1 2.1 0 0 0 2.097-2.099zm.398-28.443c0 .733-.594 1.327-1.326 1.327h-19a1.326 1.326 0 0 1 0-2.654h19c.732 0 1.326.594 1.326 1.327zm-1.034 6.889c0 .732-.594 1.327-1.326 1.327H48.505a1.326 1.326 0 0 1 0-2.654h16.933c.732 0 1.326.594 1.326 1.327zm13.183-11.915L76.238 29.79a2.662 2.662 0 0 1-2.597 2.118h-32.79l.78 3.79h31.765a1.326 1.326 0 0 1 0 2.653H41.63a2.662 2.662 0 0 1-2.597-2.118L32.618 5.075l-5.82-2.528A1.327 1.327 0 0 1 27.856.114l5.82 2.527a2.656 2.656 0 0 1 1.54 1.898l.835 4.052h41.3c.8 0 1.55.356 2.056.977.505.62.703 1.427.541 2.21zm-2.597-.535H36.596l3.709 18.01H73.64z"/></g></g></g></svg>